<?xml version="1.0" encoding="UTF-8"?>
<svg width="700pt" height="700pt" version="1.1" viewBox="0 0 700 700" xmlns="http://www.w3.org/2000/svg" xmlns:xlink="http://www.w3.org/1999/xlink">
 <defs>
  <symbol id="m" overflow="visible">
   <path d="m29.312-1.75c-1.5117 0.78125-3.0898 1.3711-4.7344 1.7656-1.6367 0.40625-3.3398 0.60938-5.1094 0.60938-5.3125 0-9.5273-1.4844-12.641-4.4531-3.1055-2.9688-4.6562-7-4.6562-12.094s1.5508-9.125 4.6562-12.094c3.1133-2.9688 7.3281-4.4531 12.641-4.4531 1.7695 0 3.4727 0.19922 5.1094 0.59375 1.6445 0.39844 3.2227 0.99219 4.7344 1.7812v6.5938c-1.5312-1.0391-3.0391-1.8008-4.5156-2.2812-1.4805-0.48828-3.0391-0.73438-4.6719-0.73438-2.9375 0-5.2461 0.94531-6.9219 2.8281-1.6797 1.875-2.5156 4.4648-2.5156 7.7656 0 3.293 0.83594 5.8828 2.5156 7.7656 1.6758 1.875 3.9844 2.8125 6.9219 2.8125 1.6328 0 3.1914-0.23828 4.6719-0.71875 1.4766-0.48828 2.9844-1.2539 4.5156-2.2969z"/>
  </symbol>
  <symbol id="c" overflow="visible">
   <path d="m21.453-17.406c-0.67969-0.3125-1.3516-0.53906-2.0156-0.6875-0.65625-0.15625-1.3203-0.23438-1.9844-0.23438-1.9688 0-3.4844 0.63281-4.5469 1.8906-1.0547 1.2617-1.5781 3.0703-1.5781 5.4219v11.016h-7.6562v-23.922h7.6562v3.9219c0.97656-1.5625 2.1016-2.7031 3.375-3.4219 1.2812-0.71875 2.8125-1.0781 4.5938-1.0781 0.25 0 0.52344 0.011719 0.82812 0.03125 0.30078 0.023438 0.73438 0.070312 1.2969 0.14062z"/>
  </symbol>
  <symbol id="b" overflow="visible">
   <path d="m27.562-12.031v2.1875h-17.891c0.1875 1.793 0.83203 3.1367 1.9375 4.0312 1.1133 0.89844 2.6719 1.3438 4.6719 1.3438 1.6016 0 3.25-0.23438 4.9375-0.70312 1.6875-0.47656 3.4219-1.2031 5.2031-2.1719v5.8906c-1.8047 0.6875-3.6094 1.2031-5.4219 1.5469-1.8125 0.35156-3.6211 0.53125-5.4219 0.53125-4.3359 0-7.7031-1.0977-10.109-3.2969-2.3984-2.207-3.5938-5.2969-3.5938-9.2656 0-3.9062 1.1758-6.9727 3.5312-9.2031 2.3633-2.2383 5.6094-3.3594 9.7344-3.3594 3.7578 0 6.7695 1.1367 9.0312 3.4062 2.2578 2.2617 3.3906 5.2812 3.3906 9.0625zm-7.8594-2.5312c0-1.457-0.42969-2.6289-1.2812-3.5156-0.84375-0.89453-1.9492-1.3438-3.3125-1.3438-1.4922 0-2.6992 0.41797-3.625 1.25-0.91797 0.83594-1.4922 2.0391-1.7188 3.6094z"/>
  </symbol>
  <symbol id="d" overflow="visible">
   <path d="m14.391-10.766c-1.5938 0-2.793 0.27344-3.5938 0.8125-0.80469 0.54297-1.2031 1.3398-1.2031 2.3906 0 0.96875 0.32031 1.7305 0.96875 2.2812 0.64453 0.54297 1.5469 0.8125 2.7031 0.8125 1.4375 0 2.6445-0.51562 3.625-1.5469 0.98828-1.0312 1.4844-2.3203 1.4844-3.875v-0.875zm11.688-2.8906v13.656h-7.7031v-3.5469c-1.0312 1.4492-2.1875 2.5078-3.4688 3.1719s-2.8398 1-4.6719 1c-2.4805 0-4.4961-0.72266-6.0469-2.1719-1.543-1.4453-2.3125-3.3203-2.3125-5.625 0-2.8125 0.96094-4.8672 2.8906-6.1719 1.9375-1.3125 4.9688-1.9688 9.0938-1.9688h4.5156v-0.60938c0-1.207-0.48047-2.0938-1.4375-2.6562-0.94922-0.5625-2.4375-0.84375-4.4688-0.84375-1.6367 0-3.1562 0.16797-4.5625 0.5-1.4062 0.32422-2.7188 0.8125-3.9375 1.4688v-5.8281c1.6445-0.40625 3.2891-0.70703 4.9375-0.90625 1.6562-0.20703 3.3047-0.3125 4.9531-0.3125 4.3203 0 7.4375 0.85547 9.3438 2.5625 1.9141 1.6992 2.875 4.4609 2.875 8.2812z"/>
  </symbol>
  <symbol id="a" overflow="visible">
   <path d="m12.031-30.719v6.7969h7.875v5.4688h-7.875v10.141c0 1.1172 0.21875 1.8711 0.65625 2.2656 0.4375 0.38672 1.3125 0.57812 2.625 0.57812h3.9375v5.4688h-6.5625c-3.0234 0-5.1641-0.62891-6.4219-1.8906-1.2617-1.2578-1.8906-3.3984-1.8906-6.4219v-10.141h-3.7969v-5.4688h3.7969v-6.7969z"/>
  </symbol>
  <symbol id="i" overflow="visible">
   <path d="m19.953-20.422v-12.812h7.6875v33.234h-7.6875v-3.4531c-1.0547 1.4062-2.2148 2.4375-3.4844 3.0938-1.2734 0.65625-2.7422 0.98438-4.4062 0.98438-2.9492 0-5.3711-1.1719-7.2656-3.5156-1.8867-2.3438-2.8281-5.3594-2.8281-9.0469s0.94141-6.7031 2.8281-9.0469c1.8945-2.3438 4.3164-3.5156 7.2656-3.5156 1.6562 0 3.1172 0.33594 4.3906 1 1.2812 0.65625 2.4453 1.6836 3.5 3.0781zm-5.0469 15.484c1.6445 0 2.8945-0.59766 3.75-1.7969 0.86328-1.1953 1.2969-2.9297 1.2969-5.2031 0-2.2812-0.43359-4.0195-1.2969-5.2188-0.85547-1.1953-2.1055-1.7969-3.75-1.7969-1.625 0-2.8711 0.60156-3.7344 1.7969-0.85547 1.1992-1.2812 2.9375-1.2812 5.2188 0 2.2734 0.42578 4.0078 1.2812 5.2031 0.86328 1.1992 2.1094 1.7969 3.7344 1.7969z"/>
  </symbol>
  <symbol id="h" overflow="visible">
   <path d="m16.406-4.9375c1.6328 0 2.8828-0.59766 3.75-1.7969 0.86328-1.1953 1.2969-2.9297 1.2969-5.2031 0-2.2812-0.43359-4.0195-1.2969-5.2188-0.86719-1.1953-2.1172-1.7969-3.75-1.7969-1.6367 0-2.8906 0.60547-3.7656 1.8125-0.875 1.1992-1.3125 2.9336-1.3125 5.2031 0 2.2617 0.4375 3.9961 1.3125 5.2031 0.875 1.1992 2.1289 1.7969 3.7656 1.7969zm-5.0781-15.484c1.0508-1.3945 2.2188-2.4219 3.5-3.0781 1.2812-0.66406 2.7539-1 4.4219-1 2.9453 0 5.3672 1.1719 7.2656 3.5156 1.8945 2.3438 2.8438 5.3594 2.8438 9.0469s-0.94922 6.7031-2.8438 9.0469c-1.8984 2.3438-4.3203 3.5156-7.2656 3.5156-1.668 0-3.1406-0.33594-4.4219-1s-2.4492-1.6914-3.5-3.0781v3.4531h-7.6562v-33.234h7.6562z"/>
  </symbol>
  <symbol id="g" overflow="visible">
   <path d="m0.53125-23.922h7.6562l6.4219 16.234 5.4688-16.234h7.6562l-10.062 26.188c-1.0117 2.6641-2.1953 4.5234-3.5469 5.5781-1.3438 1.0625-3.1211 1.5938-5.3281 1.5938h-4.4219v-5.0156h2.3906c1.3008 0 2.2422-0.21094 2.8281-0.625 0.59375-0.40625 1.0547-1.1484 1.3906-2.2188l0.20312-0.65625z"/>
  </symbol>
  <symbol id="f" overflow="visible">
   <path d="m0.21875-31.891h8.2656l8.4531 23.531 8.4375-23.531h8.2656l-11.812 31.891h-9.7969z"/>
  </symbol>
  <symbol id="l" overflow="visible">
   <path d="m23-23.172v6.2344c-1.0312-0.71875-2.0742-1.2422-3.125-1.5781-1.043-0.34375-2.125-0.51562-3.25-0.51562-2.1367 0-3.8047 0.625-5 1.875-1.1875 1.2422-1.7812 2.9805-1.7812 5.2188 0 2.2305 0.59375 3.9688 1.7812 5.2188 1.1953 1.25 2.8633 1.875 5 1.875 1.1953 0 2.332-0.17578 3.4062-0.53125 1.0703-0.36328 2.0625-0.89453 2.9688-1.5938v6.2656c-1.1875 0.4375-2.4023 0.76562-3.6406 0.98438-1.2305 0.22656-2.4648 0.34375-3.7031 0.34375-4.3125 0-7.6875-1.1094-10.125-3.3281s-3.6562-5.2969-3.6562-9.2344c0-3.9453 1.2188-7.0234 3.6562-9.2344 2.4375-2.2188 5.8125-3.3281 10.125-3.3281 1.25 0 2.4844 0.10938 3.7031 0.32812s2.4297 0.55469 3.6406 1z"/>
  </symbol>
  <symbol id="e" overflow="visible">
   <path d="m15.062-19.031c-1.6992 0-2.9961 0.60938-3.8906 1.8281-0.88672 1.2188-1.3281 2.9766-1.3281 5.2656 0 2.293 0.44141 4.0469 1.3281 5.2656 0.89453 1.2188 2.1914 1.8281 3.8906 1.8281 1.6641 0 2.9375-0.60938 3.8125-1.8281 0.88281-1.2188 1.3281-2.9727 1.3281-5.2656 0-2.2891-0.44531-4.0469-1.3281-5.2656-0.875-1.2188-2.1484-1.8281-3.8125-1.8281zm0-5.4688c4.1133 0 7.3281 1.1094 9.6406 3.3281s3.4688 5.2969 3.4688 9.2344c0 3.9297-1.1562 7.0078-3.4688 9.2344-2.3125 2.2188-5.5273 3.3281-9.6406 3.3281-4.1367 0-7.3711-1.1094-9.7031-3.3281-2.3242-2.2266-3.4844-5.3047-3.4844-9.2344 0-3.9375 1.1602-7.0156 3.4844-9.2344 2.332-2.2188 5.5664-3.3281 9.7031-3.3281z"/>
  </symbol>
  <symbol id="k" overflow="visible">
   <path d="m4.0156-31.891h13.656c4.0508 0 7.1602 0.90234 9.3281 2.7031 2.1758 1.8047 3.2656 4.3711 3.2656 7.7031 0 3.3438-1.0898 5.918-3.2656 7.7188-2.168 1.8047-5.2773 2.7031-9.3281 2.7031h-5.4375v11.062h-8.2188zm8.2188 5.9531v8.9062h4.5625c1.5938 0 2.8203-0.38281 3.6875-1.1562 0.875-0.78125 1.3125-1.8789 1.3125-3.2969 0-1.4258-0.4375-2.5234-1.3125-3.2969-0.86719-0.76953-2.0938-1.1562-3.6875-1.1562z"/>
  </symbol>
  <symbol id="j" overflow="visible">
   <path d="m3.6719-33.234h7.6562v33.234h-7.6562z"/>
  </symbol>
 </defs>
 <g>
  <path d="m557.99 287.18c-1.1523-1.9883-3.1523-3.3438-5.4258-3.6758-2.2461-0.42578-4.5586 0.25781-6.2109 1.8359l-56.352 51.016-74.113-23.539c-2.3984-0.73828-5.0078-0.23438-6.957 1.3438-1.9492 1.582-2.9844 4.0312-2.7539 6.5312 4.1133 47.688 53.023 83.039 71.75 95.023-12.188 13.844-30.297 20.977-48.652 19.164-21.508-0.83984-41.672-10.684-55.562-27.125-13.109-16.023-20.117-36.176-19.773-56.875v-118.12c0-10.676-6.3008-22.137-18.637-34.039-11.262-10.625-24.367-19.105-38.676-25.023l-64.664-27.914c-3.0078-1.3164-6.5234-0.57813-8.75 1.8398-46.375 50.836-15.051 96.863-3.5 110.69-9.6758 25.043-17.656 50.707-23.887 76.824-10.922 39.191-8.4922 80.906 6.9141 118.56v39.289l-70.176 38.762c-4.3359 2.3906-6.625 7.3086-5.668 12.164 0.96094 4.8555 4.9492 8.5352 9.8672 9.0977 11.375 1.3125 29.926 2.8867 53.727 3.3242h1.3984c15.598 0.16016 30.941-3.957 44.363-11.898 7.7695-4.3789 14.371-10.562 19.25-18.027 31.762 26.953 74.898 33.602 109.29 33.602 19.047 0.027344 38.047-1.9062 56.699-5.7734 111.21-15.75 130.64-129.76 132.91-147.09 39.547-54.691 5.0742-117.25 3.5859-119.96zm-329.53 244.3c-11.441 6.6328-24.488 9.9922-37.711 9.7109-16.188 0-29.75-1.0508-40.336-2.0117l63.875-35c2.4219-1.3359 3.9297-3.8828 3.9375-6.6523v-15.66c4.2148 6.4609 9.0508 12.5 14.438 18.023 3.3828 5.5195 7.25 10.734 11.547 15.574-3.5781 6.7578-9.0508 12.324-15.75 16.016zm312.64-131.78c-0.85937 1.1133-1.375 2.4492-1.4883 3.8516-0.4375 4.9883-12.426 120.31-120.84 135.8-1.2266 0-127.4 28.086-173.69-48.039l-1.1406-1.3125c-11.129-11.672-20.027-25.285-26.25-40.164-0.16016-0.55469-0.39453-1.082-0.69922-1.5742-14.082-34.711-16.266-73.113-6.2109-109.2 0-0.61328 14.176-58.102 24.938-78.227 1.4258-2.918 0.86328-6.418-1.4023-8.75-12.203-11.531-19.383-27.398-19.988-44.18-0.60547-16.777 5.4102-33.125 16.75-45.508l59.676 25.637v0.003906c12.652 5.2148 24.27 12.652 34.301 21.961 7.3398 5.7109 12.297 13.941 13.914 23.102v117.77c-0.35156 24.25 7.8906 47.84 23.273 66.586 16.414 19.566 40.285 31.348 65.801 32.465 13.152 1.3477 26.422-0.98828 38.32-6.7539 11.898-5.7656 21.961-14.727 29.055-25.883 1.0703-1.7578 1.3867-3.8711 0.875-5.8633-0.51172-2-1.8477-3.6836-3.6758-4.6367-0.61328-0.4375-56.699-31.852-69.125-75.688l66.5 21c2.5703 0.78125 5.3672 0.14844 7.3516-1.6641l51.887-47.074c7.1758 17.848 19.512 59.762-8.1367 96.336z"/>
  <path d="m292.07 218.14c0.046875 4.0781-1.5352 8.0039-4.3906 10.91-2.8594 2.9062-6.7578 4.5547-10.832 4.5781-4.0781 0.023438-7.9922-1.5781-10.883-4.4531s-4.5195-6.7812-4.5195-10.859c0-4.0742 1.625-7.9844 4.5156-10.859 2.8906-2.8711 6.8086-4.4766 10.887-4.4531 4.0156 0.023438 7.8594 1.6211 10.707 4.4531s4.4688 6.668 4.5156 10.684z"/>
  <path d="m225.14 0c-15.734 0-30.824 6.25-41.949 17.375s-17.375 26.215-17.375 41.949 6.25 30.824 17.375 41.949 26.215 17.375 41.949 17.375 30.824-6.25 41.949-17.375 17.375-26.215 17.375-41.949c-0.023438-15.727-6.2812-30.801-17.398-41.922-11.121-11.121-26.199-17.379-41.926-17.402zm0 103.51c-11.742 0-23.004-4.6758-31.297-12.996-8.2891-8.3164-12.926-19.594-12.887-31.34 0.039063-11.742 4.75-22.988 13.098-31.25 8.3438-8.2656 19.637-12.863 31.383-12.789 11.742 0.078125 22.973 4.8281 31.207 13.203 8.2383 8.3711 12.801 19.68 12.684 31.422-0.13672 11.637-4.8516 22.75-13.121 30.938s-19.43 12.793-31.066 12.812z"/>
  <use x="70" y="691.25" xlink:href="#m"/>
  <use x="102.109375" y="691.25" xlink:href="#c"/>
  <use x="123.683594" y="691.25" xlink:href="#b"/>
  <use x="153.355469" y="691.25" xlink:href="#d"/>
  <use x="182.878906" y="691.25" xlink:href="#a"/>
  <use x="203.792969" y="691.25" xlink:href="#b"/>
  <use x="233.464844" y="691.25" xlink:href="#i"/>
  <use x="280.011719" y="691.25" xlink:href="#h"/>
  <use x="311.328125" y="691.25" xlink:href="#g"/>
  <use x="355.078125" y="691.25" xlink:href="#f"/>
  <use x="388.9375" y="691.25" xlink:href="#b"/>
  <use x="418.613281" y="691.25" xlink:href="#l"/>
  <use x="444.546875" y="691.25" xlink:href="#a"/>
  <use x="465.460938" y="691.25" xlink:href="#e"/>
  <use x="495.515625" y="691.25" xlink:href="#c"/>
  <use x="532.324219" y="691.25" xlink:href="#k"/>
  <use x="564.386719" y="691.25" xlink:href="#e"/>
  <use x="594.445312" y="691.25" xlink:href="#c"/>
  <use x="616.019531" y="691.25" xlink:href="#a"/>
  <use x="636.933594" y="691.25" xlink:href="#d"/>
  <use x="666.457031" y="691.25" xlink:href="#j"/>
 </g>
</svg>
